# AST/ASF file generated using VICON BodyLanguage
# -----------------------------------------------
:version 1.10
:name VICON
:units
  mass 1.0
  length 0.45
  angle deg
:documentation
   .ast/.asf automatically generated from VICON data using
   VICON BodyBuilder and BodyLanguage model FoxedUp or BRILLIANT.MOD
:root
   order TX TY TZ RX RY RZ
   axis XYZ
   position 0 0 0  
   orientation 0 0 0 
:bonedata
  begin
     id 1 
     name lhipjoint
     direction 0.573633 -0.743009 0.344793 
     length 2.46257 
     axis 0 0 0  XYZ
  end
  begin
     id 2 
     name lfemur
     direction 0.34202 -0.939693 0  
     length 7.3842  
     axis 0 0 20  XYZ
    dof rx ry rz
    limits (-160.0 20.0)
           (-70.0 70.0)
           (-60.0 70.0)
  end
  begin
     id 3 
     name ltibia
     direction 0.34202 -0.939693 0   
     length 7.50407   
     axis 0 0 20   XYZ
    dof rx
    limits (-10.0 170.0)
  end
  begin
     id 4 
     name lfoot
     direction 0.110749 -0.304281 0.946123   
     length 1.95925   
     axis -90 7.62852e-016 20   XYZ
    dof rx rz
    limits (-45.0 90.0)
           (-70.0 20.0)
  end
  begin
     id 5 
     name ltoes
     direction 1.53554e-011 -4.21843e-011 1   
     length 0.978318   
     axis -90 7.62852e-016 20   XYZ
    dof rx
    limits (-90.0 20.0)
  end
  begin
     id 6 
     name rhipjoint
     direction -0.488109 -0.791693 0.367385   
     length 2.31113  
     axis 0 0 0  XYZ 
  end
  begin
     id 7 
     name rfemur
     direction -0.34202 -0.939693 0   
     length 7.40965   
     axis 0 0 -20   XYZ
    dof rx ry rz
    limits (-160.0 20.0)
           (-70.0 70.0)
           (-70.0 60.0)
  end
  begin
     id 8 
     name rtibia
     direction -0.34202 -0.939693 0   
     length 7.55548   
     axis 0 0 -20   XYZ
    dof rx
    limits (-10.0 170.0)
 end
 begin
     id 9 
     name rfoot
     direction -0.127594 -0.350561 0.927808   
     length 2.07199  
     axis -90 -7.62852e-016 -20   XYZ
    dof rx rz
    limits (-45.0 90.0)
           (-20.0 70.0)
  end
  begin
     id 10 
     name rtoes
     direction -1.53542e-011 -4.21909e-011 1   
     length 1.02667   
     axis -90 -7.62852e-016 -20   XYZ
    dof rx
    limits (-90.0 20.0)
  end
  begin
     id 11 
     name lowerback
     direction -0.0103342 0.997298 -0.0727278   
     length 2.02836   
     axis 0 0 0   XYZ
    dof rx ry rz
    limits (-20.0 45.0)
           (-30.0 30.0)
           (-30.0 30.0)
  end
  begin
     id 12 
     name upperback
     direction 0.0171146 0.999786 -0.011606   
     length 2.03179   
     axis 0 0 0   XYZ
    dof rx ry rz
    limits (-20.0 45.0)
           (-30.0 30.0)
           (-30.0 30.0)
  end
  begin
     id 13 
     name thorax
     direction 0.0216927 0.999513 0.0224343   
     length 2.03882   
     axis 0 0 0   XYZ
    dof rx ry rz
    limits (-20.0 45.0)
           (-30.0 30.0)
           (-30.0 30.0)
  end
  begin
     id 14 
     name lowerneck
     direction 0.000989287 0.993907 0.110221   
     length 1.75428   
     axis 0 0 0   XYZ
    dof rx ry rz
    limits (-20.0 45.0)
           (-30.0 30.0)
           (-30.0 30.0)
  end
  begin
     id 15 
     name upperneck
     direction -0.0172474 0.994813 -0.100253   
     length 1.77058   
     axis 0 0 0   XYZ
    dof rx ry rz
    limits (-20.0 45.0)
           (-30.0 30.0)
           (-30.0 30.0)
  end
  begin
     id 16
     name head
     direction -0.00486455 0.99894 -0.0457663  
     length 1.77427  
     axis 0 0 0   XYZ
    dof rx ry rz
    limits (-20.0 45.0)
           (-30.0 30.0)
           (-30.0 30.0)
  end
  begin
     id 17 
     name lclavicle
     direction 0.927314 0.333734 -0.169441  
     length 3.97584  
     axis 0 0 0   XYZ
    dof ry rz
    limits (-20.0 10.0)
           (0.0 20.0)
  end
  begin
     id 18 
     name lhumerus
     direction 1 -4.48965e-011 -3.25313e-028   
     length 4.76468   
     axis 180 -30 -90   XYZ
    dof rx ry rz
    limits (-60.0 90.0)
           (-90.0 90.0)
           (-90.0 90.0)
  end
  begin
     id 19
     name lradius
     direction 1 -4.48969e-011 -2.8465e-028   
     length 3.52712   
     axis -180 -30 -90   XYZ
    dof rx
    limits (-10.0 170.0)
  end
  begin
     id 20
     name lwrist
     direction 1 -4.4896e-011 -7.78665e-028   
     length 1.76356   
     axis 1.91374e-015 90 90   XYZ
    dof ry
    limits (-180.0 0.0)
 end
  begin
     id 21 
     name lhand
     direction 1 -4.48959e-011 -1.55733e-027   
     length 0.859564   
     axis 9.9371e-016 90 90   XYZ
    dof rx rz
    limits (-90.0 90.0)
           (-45.0 45.0)
  end
  begin
     id 22 
     name lfingers
     direction 1 -4.48965e-011 -3.11466e-027   
     length 0.693002   
     axis 1.98742e-015 90 90   XYZ
    dof rx
    limits (0.0 90.0)
  end
  begin
     id 23
     name lthumb
     direction 0.707107 -6.34948e-011 0.707107   
     length 0.995017   
     axis -90 45 2.85299e-015   XYZ
    dof rx rz
    limits (-45.0 45.0)
           (-45.0 45.0)
  end
  begin
     id 24 
     name rclavicle
     direction -0.899388 0.348209 -0.264294   
     length 3.68366  
     axis 0 0 0   XYZ 
    dof ry rz
    limits (-10.0 20.0)
           (-20.0 0.0)
  end
  begin
     id 25 
     name rhumerus
     direction -1 -4.48965e-011 -3.01536e-027  
     length 4.90577   
     axis 180 30 90   XYZ
    dof rx ry rz
    limits (-90.0 60.0)
           (-90.0 90.0)
           (-90.0 90.0)
  end
  begin
     id 26 
     name rradius
     direction -1 -4.48966e-011 3.93291e-027   
     length 3.42692   
     axis -180 30 90   XYZ
    dof rx
    limits (-10.0 170.0)
  end
  begin
     id 27 
     name rwrist
     direction -1 -4.48969e-011 -7.78665e-028   
     length 1.71346   
     axis 1.91374e-015 -90 -90   XYZ
    dof ry
    limits (-180.0 0.0)
  end
  begin
     id 28
     name rhand
     direction -1 -4.48967e-011 -1.55733e-027   
     length 0.740957   
     axis 9.9371e-016 -90 -90   XYZ
    dof rx rz
    limits (-90.0 90.0)
           (-45.0 45.0)
  end
  begin
     id 29
     name rfingers
     direction -1 -4.48949e-011 -3.11466e-027   
     length 0.597378   
     axis 1.98742e-015 -90 -90   XYZ
    dof rx
    limits (0.0 90.0)
  end
  begin
     id 30
     name rthumb
     direction -0.707107 -6.34931e-011 0.707107   
     length 0.857719   
     axis -90 -45 -2.85299e-015   XYZ
    dof rx rz
    limits (-45.0 45.0)
           (-45.0 45.0)
  end
:hierarchy
  begin
    root lhipjoint rhipjoint lowerback
    lhipjoint lfemur
    lfemur ltibia
    ltibia lfoot
    lfoot ltoes
    rhipjoint rfemur
    rfemur rtibia
    rtibia rfoot
    rfoot rtoes
    lowerback upperback
    upperback thorax
    thorax lowerneck lclavicle rclavicle
    lowerneck upperneck
    upperneck head
    lclavicle lhumerus
    lhumerus lradius
    lradius lwrist
    lwrist lhand lthumb
    lhand lfingers
    rclavicle rhumerus
    rhumerus rradius
    rradius rwrist
    rwrist rhand rthumb
    rhand rfingers
  end

#!OML:ASF E:\I on waltz\AllaLogoMonkeySwing\Project 1\Capture day 1\Session 1\Subject1.ASF
:FULLY-SPECIFIED
:DEGREES
142
root 5.17839 19.049 5.78561 -13.3758 37.582 -7.3738
lowerback 13.9118 0.23165 6.01528
upperback 0.149937 1.62478 3.76907
thorax -7.62228 0.661408 0.292908
lowerneck -15.1082 0.722163 -1.64448
upperneck 11.0727 1.57824 -1.71632
head 5.82494 0.562732 -0.131107
rclavicle 1.97542e-014 3.33958e-014
rhumerus -27.2044 10.7719 -81.5132
rradius 84.7481
rwrist -2.51407
rhand -14.204 -20.2189
rfingers 7.12502
rthumb 11.9324 -49.8588
lclavicle 1.97542e-014 3.33958e-014
lhumerus -46.7589 0.325875 87.901
lradius 79.7059
lwrist 10.7694
lhand -17.1666 -26.738
lfingers 7.12502
lthumb 9.07454 3.04683
rfemur 2.37333 -4.95588 28.3196
rtibia 34.818
rfoot 20.7658 -1.90485
rtoes 21.0361
lfemur -28.7151 0.402338 -8.28954
ltibia 65.5143
lfoot -1.91623 -0.0974227
ltoes -26.3406
143
root 5.54408 19.5684 6.28745 -13.3158 36.9904 -6.62492
lowerback 13.023 0.434079 5.5698
upperback -0.0971428 1.73521 3.53821
thorax -7.3851 0.726049 0.283983
lowerneck -15.8676 0.862352 -1.75186
upperneck 14.0295 1.79761 -1.16743
head 6.89346 0.669203 0.0956419
rclavicle 2.93207e-015 -2.06736e-014
rhumerus -27.6726 10.4993 -80.866
rradius 85.5035
rwrist -3.48631
rhand -13.7058 -20.9042
rfingers 7.12502
rthumb 12.4127 -50.5156
lclavicle 2.93207e-015 -2.06736e-014
lhumerus -49.0302 3.37837 84.9237
lradius 79.3597
lwrist 12.8521
lhand -18.6614 -25.0186
lfingers 7.12502
lthumb 7.63199 4.82365
rfemur 3.40862 -5.51216 26.9811
rtibia 34.4473
rfoot 21.5554 -0.434297
rtoes 14.0729
lfemur -25.9683 0.150914 -8.92525
ltibia 58.2671
lfoot -1.23972 0.607822
ltoes -24.4706
144
root 5.8986 20.0139 6.76947 -13.3915 36.2044 -7.25046
lowerback 11.8006 0.575611 6.26848
upperback -0.520386 1.95173 3.65253
thorax -7.12374 0.80865 -0.00772327
lowerneck -16.3447 0.901352 -1.94888
upperneck 16.1169 1.91191 -0.879003
head 7.65363 0.714417 0.245939
rclavicle -1.26228e-014 3.81667e-014
rhumerus -28.1662 9.95806 -79.7515
rradius 86.5228
rwrist -4.46263
rhand -11.3063 -23.9565
rfingers 7.12502
rthumb 14.7254 -53.4135
lclavicle -1.26228e-014 3.81667e-014
lhumerus -51.5448 5.99314 81.9113
lradius 79.0439
lwrist 14.5575
lhand -20.3083 -23.749
lfingers 7.12502
lthumb 6.04214 6.14489
rfemur 2.74318 -6.47729 27.144
rtibia 35.8002
rfoot 18.4684 -4.90919
rtoes 15.5815
lfemur -24.2517 0.327286 -8.40113
ltibia 52.1578
lfoot -0.851133 0.66622
ltoes -24.8985
145
root 6.22923 20.3972 7.24455 -13.1925 35.6149 -7.02527
lowerback 11.1096 0.763128 5.95823
upperback -0.813181 2.11244 3.65734
thorax -7.04751 0.895916 0.154192
lowerneck -16.7093 0.997834 -1.757
upperneck 17.5499 2.09196 -1.10245
head 8.1991 0.772838 0.170306
rclavicle 3.27995e-014 5.56597e-015
rhumerus -28.5492 9.20711 -78.3935
rradius 87.567
rwrist -5.42844
rhand -9.52558 -24.9696
rfingers 7.12502
rthumb 16.4405 -54.2929
lclavicle 3.27995e-014 5.56597e-015
lhumerus -54.1305 8.22582 78.7812
lradius 78.8215
lwrist 15.6624
lhand -21.4207 -22.8164
lfingers 7.12502
lthumb 4.96816 7.10531
rfemur 1.7421 -7.53133 26.6922
rtibia 37.5574
rfoot 16.0204 -9.74573
rtoes 20.4994
lfemur -22.2725 0.417302 -8.65718
ltibia 46.6542
lfoot -0.7939 0.196217
ltoes -24.253
146
root 6.52203 20.6853 7.69816 -12.36 35.2053 -6.09974
lowerback 10.712 0.938482 4.81976
upperback -1.13458 2.16502 3.4969
thorax -7.19294 0.953599 0.618462
lowerneck -17.1194 1.14257 -1.73953
upperneck 18.6014 2.29568 -0.94827
head 8.62473 0.872818 0.252019
rclavicle 4.72611e-014 -1.35174e-014
rhumerus -29.3256 8.08922 -77.1407
rradius 89.5162
rwrist -5.55676
rhand -6.98607 -26.8863
rfingers 7.12502
rthumb 18.8842 -55.9896
lclavicle 4.72611e-014 -1.35174e-014
lhumerus -56.6993 10.2493 75.4099
lradius 78.6312
lwrist 16.1611
lhand -21.8478 -22.2835
lfingers 7.12502
lthumb 4.55576 7.64749
rfemur 0.00754293 -8.12941 25.8106
rtibia 39.063
rfoot 14.4428 -13.0519
rtoes 25.3277
lfemur -20.9467 0.605554 -9.53101
ltibia 41.7776
lfoot -0.440924 -1.06873
ltoes -25.1995
147
root 6.8216 20.9136 8.13726 -12.2798 34.6615 -4.90414
lowerback 11.2802 1.08947 3.68479
upperback -1.06364 2.22567 3.24948
thorax -7.46813 1.01701 0.971855
lowerneck -17.4661 1.25211 -2.12849
upperneck 19.1665 2.42972 -0.291019
head 8.86444 0.970895 0.562054
rclavicle -7.42461e-014 -2.38542e-014
rhumerus -29.5985 7.495 -75.5055
rradius 90.3519
rwrist -5.74683
rhand -5.9954 -27.4684
rfingers 7.12502
rthumb 19.8368 -56.4761
lclavicle -7.42461e-014 -2.38542e-014
lhumerus -59.1354 12.0966 72.0366
lradius 78.3276
lwrist 16.1412
lhand -21.9804 -22.09
lfingers 7.12502
lthumb 4.4277 7.84368
rfemur -0.698503 -8.57446 24.4846
rtibia 39.7708
rfoot 13.4508 -15.0933
rtoes 28.8415
lfemur -18.4553 0.599507 -10.7031
ltibia 36.9638
lfoot -0.0453042 -2.29721
ltoes -26.0173
148
root 7.12398 21.0871 8.57046 -11.8948 34.2628 -3.87979
lowerback 11.3827 1.16012 2.74051
upperback -1.02337 2.16984 2.99584
thorax -7.50541 1.02063 1.24147
lowerneck -17.7263 1.53043 -1.58691
upperneck 19.425 2.81893 -0.902365
head 9.015 1.1215 0.318574
rclavicle -1.09332e-014 3.45885e-014
rhumerus -29.9892 7.07112 -73.7125
rradius 91.5727
rwrist -6.03132
rhand -5.4622 -28.9681
rfingers 7.12502
rthumb 20.3493 -57.922
lclavicle -1.09332e-014 3.45885e-014
lhumerus -61.4973 13.6387 68.6667
lradius 77.831
lwrist 16.0514
lhand -22.0168 -22.2305
lfingers 7.12502
lthumb 4.39258 7.70392
rfemur -1.91404 -9.00535 23.3154
rtibia 39.8096
rfoot 12.8268 -16.6553
rtoes 30.4572
lfemur -16.619 0.361903 -11.8216
ltibia 32.6738
lfoot 0.366734 -3.44309
ltoes -26.6876
149
root 7.42289 21.2207 8.99802 -11.9673 33.9389 -3.19224
lowerback 11.7966 1.14028 2.03964
upperback -0.869699 2.04085 2.81257
thorax -7.59193 0.980685 1.45787
lowerneck -18.0727 1.84352 -1.59416
upperneck 19.6866 3.17406 -0.493287
head 9.15788 1.32735 0.511154
rclavicle -7.25067e-014 7.95139e-015
rhumerus -30.7088 6.50803 -71.9192
rradius 92.6315
rwrist -5.71748
rhand -5.86595 -28.8932
rfingers 7.12502
rthumb 19.9612 -57.888
lclavicle -7.25067e-014 7.95139e-015
lhumerus -63.6949 14.7861 65.417
lradius 77.0424
lwrist 16.1285
lhand -22.2404 -22.5715
lfingers 7.12502
lthumb 4.17664 7.36728
rfemur -2.81356 -9.63268 22.3826
rtibia 39.0517
rfoot 12.5607 -16.8038
rtoes 29.4735
lfemur -14.6053 0.00177984 -12.68
ltibia 28.7357
lfoot 0.822383 -4.37911
ltoes -27.8679
150
root 7.71482 21.3095 9.4287 -12.1382 33.8346 -2.80527
lowerback 12.0937 1.05337 1.4567
upperback -0.675395 1.83457 2.68962
thorax -7.56307 0.900624 1.68967
lowerneck -18.3428 2.19072 -0.864645
upperneck 19.725 3.61054 -1.16833
head 9.24605 1.50719 0.220745
rclavicle 1.4059e-013 -1.51076e-014
rhumerus -31.5256 5.94811 -70.0383
rradius 93.5767
rwrist -6.16642
rhand -6.99823 -29.1053
rfingers 7.12502
rthumb 18.8725 -58.2098
lclavicle 1.4059e-013 -1.51076e-014
lhumerus -65.483 15.393 62.4962
lradius 75.8727
lwrist 16.1551
lhand -22.7832 -22.7159
lfingers 7.12502
lthumb 3.65243 7.2325
rfemur -3.70393 -10.047 21.7622
rtibia 37.7522
rfoot 11.6006 -16.4398
rtoes 29.6659
lfemur -12.8756 -0.333808 -13.2741
ltibia 25.2077
lfoot 1.63653 -5.15094
ltoes -29.1289
151
root 8.00444 21.3529 9.85812 -12.2476 33.963 -2.46407
lowerback 12.2735 0.943665 0.898067
upperback -0.470541 1.5958 2.56455
thorax -7.45135 0.803126 1.9145
lowerneck -18.45 2.42228 -0.733473
upperneck 19.5966 3.86745 -1.07443
head 9.22126 1.64784 0.26549
rclavicle 8.79622e-015 -2.78299e-014
rhumerus -32.4192 5.45042 -67.8728
rradius 94.3586
rwrist -6.87202
rhand -8.08752 -29.7469
rfingers 7.12502
rthumb 17.8246 -58.95
lclavicle 8.79622e-015 -2.78299e-014
lhumerus -66.6638 15.2416 60.1055
lradius 74.2079
lwrist 16.2072
lhand -23.4904 -22.5096
lfingers 7.12502
lthumb 2.96952 7.44944
rfemur -4.70148 -10.3883 21.1769
rtibia 36.3177
rfoot 10.5853 -14.5926
rtoes 26.8503
lfemur -11.4314 -0.651202 -13.8772
ltibia 21.9987
lfoot 2.91077 -5.92562
ltoes -30.6474
152
root 8.29348 21.3517 10.2851 -12.2811 34.122 -2.18111
lowerback 12.4809 0.915661 0.467193
upperback -0.385831 1.48543 2.41603
thorax -7.48144 0.762111 2.01898
lowerneck -18.7264 2.60414 -0.389615
upperneck 19.8893 4.08213 -1.28236
head 9.38615 1.74445 0.172986
rclavicle 9.79014e-015 -1.15295e-014
rhumerus -33.6294 4.92914 -65.471
rradius 94.944
rwrist -7.97299
rhand -9.35721 -30.3877
rfingers 7.12502
rthumb 16.6026 -59.6975
lclavicle 9.79014e-015 -1.15295e-014
lhumerus -67.2125 14.3081 58.2486
lradius 72.0449
lwrist 16.4393
lhand -23.9992 -22.3261
lfingers 7.12502
lthumb 2.47815 7.63923
rfemur -5.8275 -10.4647 20.684
rtibia 34.7292
rfoot 9.63508 -12.0408
rtoes 22.0892
lfemur -10.2683 -0.84093 -14.437
ltibia 19.243
lfoot 4.29402 -6.64701
ltoes -32.3448
153
root 8.57782 21.3062 10.7203 -11.6681 34.356 -1.45571
lowerback 12.3983 0.992971 -0.430773
upperback -0.528286 1.43526 2.16153
thorax -7.60079 0.767235 2.26728
lowerneck -18.8617 2.64565 -0.511036
upperneck 20.285 4.08473 -0.839527
head 9.53534 1.78232 0.351911
rclavicle -5.7896e-014 1.11319e-014
rhumerus -35.2188 4.49175 -62.9585
rradius 95.4032
rwrist -9.38696
rhand -10.5754 -31.4767
rfingers 7.12502
rthumb 15.4295 -60.8809
lclavicle -5.7896e-014 1.11319e-014
lhumerus -67.3455 12.8462 56.8318
lradius 69.5541
lwrist 16.9144
lhand -24.187 -22.5782
lfingers 7.12502
lthumb 2.29679 7.38921
rfemur -7.33111 -10.1325 19.9185
rtibia 32.9509
rfoot 8.90277 -9.42946
rtoes 15.362
lfemur -9.5794 -0.856156 -15.3766
ltibia 16.6928
lfoot 5.89308 -7.17714
ltoes -33.6471
154
root 8.86173 21.2012 11.1597 -12.0256 34.4552 -1.88957
lowerback 12.5135 1.00903 -0.349571
upperback -0.541023 1.47226 2.18821
thorax -7.68029 0.783164 2.24157
lowerneck -18.4253 2.64875 -0.40369
upperneck 19.9452 4.08011 -0.989064
head 9.34286 1.77892 0.272054
rclavicle 8.61732e-014 -1.07344e-014
rhumerus -36.8741 4.17139 -60.3012
rradius 95.7727
rwrist -10.8647
rhand -10.8544 -33.005
rfingers 7.12502
rthumb 15.1607 -62.4296
lclavicle 8.61732e-014 -1.07344e-014
lhumerus -67.1346 11.0773 55.8511
lradius 66.9887
lwrist 17.2785
lhand -23.9556 -22.7724
lfingers 7.12502
lthumb 2.52028 7.19246
rfemur -8.33507 -9.5522 20.2888
rtibia 30.9098
rfoot 8.28651 -7.4689
rtoes 12.3778
lfemur -8.69556 -0.852379 -15.1124
ltibia 14.4117
lfoot 7.60458 -7.67637
ltoes -34.5615
155
root 9.14665 21.0498 11.5983 -11.8434 34.7486 -1.50004
lowerback 12.4291 1.05117 -0.998706
upperback -0.532755 1.41683 2.01699
thorax -7.63256 0.777476 2.4386
lowerneck -18.4796 2.63988 -0.528183
upperneck 20.3586 4.03914 -0.653676
head 9.48609 1.78474 0.407768
rclavicle 3.67255e-014 -2.78299e-015
rhumerus -38.5556 4.2593 -57.8627
rradius 95.9388
rwrist -13.0741
rhand -11.9374 -33.6268
rfingers 7.12502
rthumb 14.1173 -63.1272
lclavicle 3.67255e-014 -2.78299e-015
lhumerus -66.7859 9.18952 55.0762
lradius 64.5856
lwrist 16.8884
lhand -23.3782 -22.1337
lfingers 7.12502
lthumb 3.07784 7.8238
rfemur -9.35206 -8.98562 19.7536
rtibia 28.8404
rfoot 8.15875 -6.32325
rtoes 17.6096
lfemur -8.03344 -0.704372 -15.7336
ltibia 12.485
lfoot 9.17675 -8.48219
ltoes -38.4142
156
root 9.43497 20.849 12.0417 -11.7656 35.1666 -1.19712
lowerback 12.2557 1.01048 -1.56529
upperback -0.476338 1.26508 1.84155
thorax -7.47423 0.719768 2.60327
lowerneck -18.087 2.73892 -0.235628
upperneck 20.2427 4.12527 -0.807651
head 9.38395 1.83485 0.310902
rclavicle 1.94809e-014 -2.06736e-014
rhumerus -40.1771 4.37901 -55.4762
rradius 95.7879
rwrist -14.0958
rhand -11.8805 -33.8304
rfingers 7.12502
rthumb 14.1722 -63.327
lclavicle 1.94809e-014 -2.06736e-014
lhumerus -66.5489 7.13888 54.5513
lradius 62.6125
lwrist 16.0915
lhand -22.8162 -21.172
lfingers 7.12502
lthumb 3.62064 8.77695
rfemur -10.0991 -8.52758 19.2147
rtibia 26.5997
rfoot 8.96695 -6.10716
rtoes 20.3381
lfemur -7.40654 -0.518871 -16.3415
ltibia 10.7677
lfoot 10.8735 -9.46579
ltoes -40.5551
